#!OML:ASF F:\VICON\USERDATA\INSTALL\rory3\rory3.ASF
:FULLY-SPECIFIED
:DEGREES
601
root 4.50729 15.7953 1.73853 21.6766 -6.07226 -3.74834
lowerback 10.8897 -0.463016 1.62049
upperback 7.87828 -0.500201 -0.850972
thorax 2.09403 -0.175804 -1.74856
lowerneck -19.8832 -0.902749 -1.54059
upperneck 38.6916 -0.0358972 -1.86115
head 17.6521 -0.544836 -0.59664
rclavicle 6.75868e-015 8.34896e-015
rhumerus -75.1315 62.0243 -89.2217
rradius 66.1122
rwrist -17.9811
rhand -8.5125 -42.5692
rfingers 7.12502
rthumb 17.4157 -71.809
lclavicle 6.75868e-015 8.34896e-015
lhumerus -91.1968 -71.4757 109.051
lradius 63.8235
lwrist 62.5962
lhand -26.4406 -23.8362
lfingers 7.12502
lthumb 0.120216 6.14346
rfemur -74.471 0.525242 18.3067
rtibia 35.9743
rfoot 37.6025 -1.45949
rtoes 4.31241
lfemur -57.482 3.17738 -28.2477
ltibia 60.8561
lfoot -23.9678 4.42807
ltoes 11.9339
602
root 4.50538 15.8003 1.73537 21.6781 -6.13867 -3.79505
lowerback 10.8441 -0.444745 1.60906
upperback 7.9394 -0.478527 -0.844216
thorax 2.18429 -0.1645 -1.73764
lowerneck -19.7668 -0.837688 -1.40377
upperneck 38.5479 0.0981241 -2.09117
head 17.5431 -0.502821 -0.695635
rclavicle -2.06736e-014 1.19271e-015
rhumerus -75.3379 62.0989 -89.2481
rradius 65.9732
rwrist -17.9359
rhand -7.96288 -42.6344
rfingers 7.12502
rthumb 17.9446 -71.8266
lclavicle -2.06736e-014 1.19271e-015
lhumerus -91.5733 -71.5428 109.122
lradius 63.7839
lwrist 62.6574
lhand -26.0817 -24.1523
lfingers 7.12502
lthumb 0.466815 5.82694
rfemur -74.4175 0.605344 18.3273
rtibia 35.9106
rfoot 37.5892 -1.56895
rtoes 4.40152
lfemur -57.4832 3.20045 -28.1908
ltibia 60.879
lfoot -23.9626 4.45251
ltoes 12.1607
603
root 4.50484 15.8057 1.73124 21.637 -6.07821 -3.89595
lowerback 10.9141 -0.46146 1.72138
upperback 7.99935 -0.491257 -0.804255
thorax 2.20916 -0.166788 -1.75811
lowerneck -19.5696 -0.847719 -1.48347
upperneck 38.2572 0.0868835 -2.04764
head 17.3319 -0.509718 -0.656707
rclavicle 7.55382e-015 1.15295e-014
rhumerus -75.5105 62.0543 -89.2347
rradius 65.7768
rwrist -17.8137
rhand -8.07464 -42.4324
rfingers 7.12502
rthumb 17.837 -71.6344
lclavicle 7.55382e-015 1.15295e-014
lhumerus -92.1561 -71.5655 109.452
lradius 63.7479
lwrist 62.7397
lhand -26.3963 -23.9718
lfingers 7.12502
lthumb 0.163019 6.0079
rfemur -74.2981 0.601762 18.4398
rtibia 35.8487
rfoot 37.5682 -1.79709
rtoes 4.92946
lfemur -57.4297 3.16009 -28.0436
ltibia 60.9124
lfoot -24.0133 4.46802
ltoes 12.1999
604
root 4.50396 15.8035 1.72952 21.7365 -5.87104 -4.1504
lowerback 10.8342 -0.528386 2.07347
upperback 8.06732 -0.553706 -0.714526
thorax 2.32111 -0.184117 -1.85822
lowerneck -19.5766 -0.829422 -1.38315
upperneck 38.0935 0.179102 -2.30572
head 17.2462 -0.493438 -0.769907
rclavicle 1.70955e-014 9.54166e-015
rhumerus -75.6985 62.2353 -89.2278
rradius 65.6291
rwrist -18.0796
rhand -8.31903 -42.4729
rfingers 7.12502
rthumb 17.6018 -71.6961
lclavicle 1.70955e-014 9.54166e-015
lhumerus -91.7035 -71.418 108.8
lradius 63.5457
lwrist 62.4693
lhand -26.1024 -23.4116
lfingers 7.12502
lthumb 0.446824 6.56771
rfemur -74.3252 0.519899 18.7897
rtibia 35.7971
rfoot 37.6586 -1.75157
rtoes 5.29026
lfemur -57.5685 3.05443 -27.7011
ltibia 60.9769
lfoot -24.05 4.44515
ltoes 12.309
605
root 4.50464 15.8045 1.73197 21.8661 -5.71537 -4.37593
lowerback 10.5597 -0.558048 2.43682
upperback 8.19255 -0.572847 -0.662935
thorax 2.60133 -0.175122 -2.00975
lowerneck -19.6919 -0.780274 -1.21128
upperneck 38.0875 0.304871 -2.58622
head 17.2751 -0.457955 -0.903161
rclavicle 6.36111e-015 -1.39149e-014
rhumerus -75.7587 62.4474 -89.0361
rradius 65.5704
rwrist -18.2904
rhand -8.44077 -42.5791
rfingers 7.12502
rthumb 17.4847 -71.8128
lclavicle 6.36111e-015 -1.39149e-014
lhumerus -91.196 -71.363 108.166
lradius 63.1941
lwrist 61.7024
lhand -25.891 -22.9779
lfingers 7.12502
lthumb 0.650981 7.00081
rfemur -74.3819 0.407584 19.1614
rtibia 35.753
rfoot 37.7385 -1.63381
rtoes 5.61106
lfemur -57.7155 2.9562 -27.4033
ltibia 61.0138
lfoot -24.0514 4.44265
ltoes 12.3959
606
root 4.50636 15.808 1.73606 21.9042 -5.68308 -4.45835
lowerback 10.1897 -0.532192 2.66666
upperback 8.40898 -0.534564 -0.700852
thorax 3.03407 -0.13662 -2.18501
lowerneck -19.8963 -0.77609 -1.21047
upperneck 38.1671 0.266224 -2.45644
head 17.3693 -0.455463 -0.855543
rclavicle -9.93923e-015 2.70347e-014
rhumerus -75.4859 62.4784 -88.6444
rradius 65.445
rwrist -18.424
rhand -8.99868 -42.6977
rfingers 7.12502
rthumb 16.9477 -71.9783
lclavicle -9.93923e-015 2.70347e-014
lhumerus -91.0554 -71.5928 107.844
lradius 62.9173
lwrist 61.1338
lhand -25.9091 -22.9166
lfingers 7.12502
lthumb 0.633505 7.06218
rfemur -74.3607 0.324046 19.3657
rtibia 35.7179
rfoot 37.7356 -1.55447
rtoes 5.75567
lfemur -57.7229 2.8906 -27.289
ltibia 61.0229
lfoot -24.0295 4.52315
ltoes 12.4238
